<?xml version="1.0" standalone="no"?>
<!DOCTYPE svg PUBLIC "-//W3C//DTD SVG 20010904//EN"
 "http://www.w3.org/TR/2001/REC-SVG-20010904/DTD/svg10.dtd">
<svg version="1.0" xmlns="http://www.w3.org/2000/svg"
 width="500.000000pt" height="500.000000pt" viewBox="0 0 500.000000 500.000000"
 preserveAspectRatio="xMidYMid meet">

<g transform="translate(0.000000,500.000000) scale(0.100000,-0.100000)"
fill="#000000" stroke="none">
<path d="M1919 4477 c-110 -31 -198 -112 -226 -207 -13 -45 -15 -84 -10 -210
4 -93 13 -176 22 -207 32 -108 179 -219 306 -230 49 -5 71 -1 127 21 126 50
207 129 237 230 9 28 23 111 32 184 18 144 13 192 -28 273 -24 48 -102 115
-159 135 -60 22 -240 28 -301 11z"/>
<path d="M3171 4036 c-52 -17 -95 -56 -123 -111 -18 -34 -20 -52 -15 -135 9
-169 44 -238 142 -284 93 -45 187 -28 262 46 50 49 59 73 73 194 17 159 -8
226 -105 277 -51 26 -172 33 -234 13z"/>
<path d="M1785 3495 c-170 -32 -254 -76 -321 -168 -59 -79 -87 -134 -123 -244
-41 -122 -55 -231 -54 -418 0 -222 24 -320 100 -413 l18 -23 155 34 c85 19
197 43 247 53 51 10 98 21 105 25 18 11 -10 86 -48 126 -31 33 -32 33 -123 33
l-91 0 0 35 c0 34 2 35 36 35 35 0 36 1 30 33 -9 54 -30 298 -31 362 l0 60 70
13 c39 7 147 14 240 15 183 2 293 -12 443 -59 42 -13 78 -21 80 -19 2 2 7 31
11 65 4 34 13 65 20 69 7 5 44 11 83 14 39 3 73 9 76 12 3 3 9 30 13 61 5 40
16 67 37 93 39 49 116 106 163 121 22 8 36 16 32 20 -4 4 -116 17 -248 29
-132 12 -280 27 -330 32 -165 18 -501 20 -590 4z"/>
<path d="M3087 3386 c-86 -16 -197 -63 -241 -104 -16 -15 -35 -41 -42 -59 -15
-35 -18 -149 -8 -252 l7 -61 34 0 c38 0 100 16 233 60 47 15 115 35 152 45 37
10 65 22 62 26 -3 5 2 6 10 3 8 -3 48 -1 88 5 40 6 139 12 220 13 l146 2 6 39
c10 58 -2 99 -43 153 -71 94 -183 133 -401 139 -96 3 -171 0 -223 -9z"/>
<path d="M1848 2951 c-26 -4 -50 -10 -54 -13 -6 -7 12 -286 22 -338 4 -19 15
-30 39 -39 19 -6 48 -28 65 -48 31 -35 90 -152 90 -177 0 -7 9 -23 20 -36 11
-13 20 -20 20 -16 0 4 15 -1 33 -12 99 -61 254 -142 267 -140 15 3 30 65 50
213 5 39 16 108 25 155 8 47 15 87 15 89 0 7 47 -8 103 -33 l58 -26 -2 119
c-2 176 -4 181 -71 208 -80 32 -274 81 -370 93 -89 11 -234 11 -310 1z"/>
<path d="M3460 2950 c-41 -4 -87 -13 -101 -18 -15 -6 -29 -8 -32 -6 -9 10
-225 -49 -279 -75 l-53 -26 -12 -230 c-11 -213 -11 -230 5 -240 33 -20 66 -25
79 -12 15 15 118 313 134 387 6 28 17 54 24 56 7 3 40 -1 72 -9 32 -9 101 -25
153 -37 52 -12 116 -29 141 -37 40 -14 46 -20 47 -45 0 -16 14 -44 31 -65 17
-21 31 -47 30 -58 0 -20 0 -20 -9 0 -7 16 -9 17 -9 3 -1 -9 4 -20 9 -23 6 -3
9 -18 9 -33 -1 -21 -2 -22 -6 -7 -3 11 -9 25 -15 30 -6 7 -7 4 -3 -6 3 -9 -2
-22 -11 -30 -12 -9 -15 -10 -10 -1 4 7 1 12 -8 12 -9 0 -15 -6 -14 -12 2 -9
-11 -13 -42 -12 -25 1 -47 -3 -51 -7 -3 -5 -27 -12 -55 -15 -36 -4 -45 -3 -34
5 9 7 11 11 3 11 -7 0 -16 -6 -20 -14 -7 -11 -96 -33 -162 -41 -42 -4 -151
-36 -152 -44 -2 -10 -2 -54 0 -118 l1 -63 39 0 c22 0 43 5 46 10 3 6 16 8 29
4 14 -3 27 1 35 10 8 9 21 16 30 15 12 0 11 -2 -4 -9 -15 -7 -9 -9 25 -9 33
-1 41 2 30 9 -8 5 -10 10 -4 10 5 0 19 -7 30 -15 22 -17 38 -20 29 -5 -10 16
51 12 65 -5 7 -8 25 -15 41 -15 15 0 30 -4 33 -8 8 -13 112 -36 130 -29 10 4
16 1 16 -8 0 -8 4 -15 8 -15 5 0 14 51 21 113 35 302 39 352 29 358 -6 4 -6
13 0 25 11 20 34 251 30 296 -2 21 -11 29 -38 37 -51 15 -194 21 -280 11z"/>
<path d="M2663 2660 c5 -118 10 -158 21 -166 22 -16 215 -98 220 -93 6 6 28
401 23 406 -3 2 -65 5 -137 6 l-133 2 6 -155z"/>
<path d="M3001 2228 c0 -14 -6 -28 -13 -30 -14 -5 -29 -129 -17 -142 4 -5 39
-11 77 -14 64 -4 70 -3 77 16 4 13 -2 40 -14 68 -12 26 -21 53 -21 60 0 8 -10
14 -25 14 -21 0 -25 -5 -25 -27 l0 -28 -14 27 c-8 15 -17 40 -19 55 l-4 28 -2
-27z"/>
<path d="M2700 2131 l0 -39 68 -6 c37 -4 79 -9 93 -12 26 -5 27 -4 26 43 -1
47 -2 48 -34 50 -25 2 -31 0 -27 -12 5 -11 -2 -14 -32 -13 -21 1 -40 -4 -42
-10 -5 -17 -22 -15 -22 4 0 9 -5 12 -12 8 -8 -5 -9 -2 -5 9 3 10 2 17 -3 17
-6 0 -10 -17 -10 -39z"/>
<path d="M2565 2120 c-3 -5 -1 -10 4 -10 6 0 11 5 11 10 0 6 -2 10 -4 10 -3 0
-8 -4 -11 -10z"/>
<path d="M2595 2120 c-3 -5 1 -10 9 -10 9 0 16 5 16 10 0 6 -4 10 -9 10 -6 0
-13 -4 -16 -10z"/>
<path d="M2301 1995 c-17 -37 -31 -68 -31 -70 0 -2 -11 -20 -24 -40 -14 -20
-23 -42 -20 -48 2 -7 28 -18 56 -25 41 -9 53 -9 60 1 11 17 10 235 -1 242 -6
3 -24 -24 -40 -60z"/>
<path d="M3645 2017 c-36 -39 -55 -90 -30 -84 6 1 9 8 9 15 -1 6 4 12 12 12 8
0 14 5 14 11 0 5 5 7 10 4 6 -3 10 -17 10 -30 0 -13 4 -26 9 -30 15 -9 23 32
11 56 -8 15 -9 19 -1 15 7 -5 11 6 11 33 0 23 -3 41 -7 41 -5 -1 -26 -20 -48
-43z m35 -7 c0 -5 -5 -10 -11 -10 -5 0 -7 5 -4 10 3 6 8 10 11 10 2 0 4 -4 4
-10z"/>
<path d="M1897 1894 c-4 -5 0 -55 6 -60 1 -1 24 0 50 3 54 6 58 23 9 35 -18 5
-32 13 -32 18 0 11 -23 14 -33 4z"/>
<path d="M3675 1869 c-4 -6 -5 -12 -2 -15 2 -3 7 2 10 11 7 17 1 20 -8 4z"/>
<path d="M3600 1866 c0 -2 9 -6 20 -9 11 -3 18 -1 14 4 -5 9 -34 13 -34 5z"/>
<path d="M1685 1556 c-113 -28 -223 -115 -266 -211 -32 -73 -44 -168 -30 -238
16 -76 32 -107 83 -163 52 -57 115 -78 228 -78 129 0 135 3 147 70 l10 56 -26
-6 c-145 -33 -235 -5 -282 87 -49 94 -30 228 42 310 48 56 95 71 193 65 l76
-5 9 36 c18 68 17 74 -9 82 -39 11 -120 9 -175 -5z"/>
<path d="M2230 1556 c-111 -30 -205 -108 -255 -210 -40 -82 -47 -214 -16 -296
40 -105 106 -160 218 -181 57 -11 178 -4 203 11 11 7 33 99 25 108 -1 1 -34
-3 -72 -10 -161 -27 -253 51 -253 217 0 156 86 257 219 257 33 0 73 -3 89 -7
27 -5 30 -3 36 24 3 17 9 44 12 60 5 26 3 28 -33 34 -57 10 -122 7 -173 -7z"/>
<path d="M2715 1513 c-29 -79 -73 -178 -166 -374 -48 -102 -94 -202 -103 -223
l-15 -36 70 0 c57 0 71 3 76 18 3 9 19 52 35 95 l29 77 119 0 c96 0 119 -3
124 -15 3 -9 9 -51 12 -95 l7 -80 78 0 c44 0 79 4 79 9 0 21 -32 180 -44 221
-21 67 -63 253 -82 358 l-17 92 -92 0 -92 0 -18 -47z m119 -185 c14 -73 26
-139 26 -145 0 -10 -25 -13 -90 -13 -49 0 -90 4 -90 8 0 5 6 22 14 38 7 16 33
77 57 136 24 59 47 108 50 108 3 0 18 -60 33 -132z"/>
<path d="M3205 1423 c-4 -76 -18 -228 -31 -337 -13 -110 -21 -203 -17 -206 5
-3 35 -4 69 -2 l61 4 9 126 9 127 83 6 c109 8 203 53 246 118 41 62 48 161 14
210 -53 77 -95 90 -294 91 l-142 0 -7 -137z m310 12 c20 -19 25 -34 25 -76 0
-44 -4 -55 -33 -84 -27 -27 -45 -35 -106 -45 -40 -7 -76 -8 -81 -4 -6 7 11
215 19 232 0 1 35 2 76 2 67 0 79 -3 100 -25z"/>
<path d="M2076 754 c-5 -14 -4 -15 9 -4 17 14 19 20 6 20 -5 0 -12 -7 -15 -16z"/>
<path d="M2869 738 c-2 -18 -1 -58 2 -88 5 -49 6 -45 7 33 2 88 -3 115 -9 55z"/>
<path d="M2987 763 c-4 -3 -7 -11 -7 -17 0 -6 5 -5 12 2 6 6 9 14 7 17 -3 3
-9 2 -12 -2z"/>
<path d="M3270 754 c0 -8 5 -12 10 -9 6 3 10 10 10 16 0 5 -4 9 -10 9 -5 0
-10 -7 -10 -16z"/>
<path d="M1346 693 c-16 -38 -30 -74 -33 -80 -3 -7 -1 -13 5 -13 5 0 13 11 16
25 5 21 12 25 46 25 35 0 42 -4 51 -26 5 -15 12 -24 16 -21 9 9 -50 157 -63
157 -6 0 -23 -30 -38 -67z m53 16 c16 -46 14 -49 -19 -49 -34 0 -34 1 -18 47
15 41 23 42 37 2z"/>
<path d="M1492 708 c-20 -20 -14 -37 18 -53 40 -21 39 -43 -2 -48 l-33 -5 35
2 c28 1 36 5 38 23 2 16 -5 26 -28 38 -36 19 -35 40 3 40 14 -1 23 3 21 7 -8
12 -38 10 -52 -4z"/>
<path d="M1607 702 c-20 -22 -22 -73 -5 -90 7 -7 28 -11 48 -11 33 2 34 2 5 6
-41 6 -55 20 -53 52 2 34 16 51 40 51 24 0 36 -29 17 -42 -11 -7 -9 -8 6 -6
14 3 19 10 17 23 -7 38 -48 47 -75 17z"/>
<path d="M1750 716 c0 -2 9 -6 20 -9 11 -3 18 -1 14 4 -5 9 -34 13 -34 5z"/>
<path d="M1890 707 c26 -13 40 -66 23 -91 -4 -6 0 -3 10 7 9 11 17 28 17 38 0
24 -34 59 -57 59 -13 0 -11 -4 7 -13z"/>
<path d="M2005 710 c-3 -5 -11 -7 -18 -4 -9 3 -11 -11 -7 -53 l4 -58 6 50 c4
42 8 50 28 53 12 2 22 8 22 13 0 12 -27 12 -35 -1z"/>
<path d="M2130 710 c-11 -8 -9 -9 10 -5 15 4 33 0 45 -9 17 -14 18 -17 5 -26
-12 -8 -12 -10 -1 -10 9 0 12 -8 9 -25 -3 -14 -1 -28 3 -31 5 -3 9 15 9 40 0
64 -37 94 -80 66z"/>
<path d="M2262 711 c-21 -13 -10 -44 21 -59 27 -13 36 -36 17 -45 -6 -3 -5 -4
2 -3 7 1 14 12 16 24 2 15 -6 25 -28 37 -34 18 -35 40 -1 39 11 0 21 3 21 8 0
10 -31 10 -48 -1z"/>
<path d="M2420 710 c-11 -8 -9 -9 10 -5 28 7 75 -22 52 -32 -10 -4 -10 -8 -1
-19 6 -7 9 -20 6 -29 -4 -8 -2 -17 3 -20 6 -4 10 15 10 44 0 39 -4 53 -19 61
-25 13 -42 13 -61 0z"/>
<path d="M2562 704 c-15 -10 -22 -25 -22 -48 0 -40 16 -56 55 -55 26 2 27 2 5
6 -50 9 -70 76 -27 92 12 5 28 6 36 3 9 -3 12 -1 7 6 -10 16 -27 15 -54 -4z"/>
<path d="M2664 708 c-5 -8 -2 -9 10 -5 33 13 55 -9 53 -54 -2 -22 1 -43 5 -45
4 -3 8 17 8 45 0 39 -4 53 -19 61 -26 13 -48 13 -57 -2z"/>
<path d="M2800 700 c-34 -34 -21 -101 20 -99 11 0 11 2 2 6 -18 7 -32 46 -25
71 3 12 17 25 32 31 17 6 20 10 9 10 -10 1 -27 -8 -38 -19z"/>
<path d="M2940 700 c-43 -43 -15 -101 48 -99 34 2 35 2 7 6 -33 5 -68 31 -59
44 3 5 23 9 45 9 31 0 39 4 39 18 0 42 -47 55 -80 22z m60 -5 c18 -21 9 -27
-36 -23 -36 3 -37 4 -20 21 21 21 40 22 56 2z"/>
<path d="M3091 711 c-8 -5 -19 -7 -25 -5 -8 3 -9 -14 -6 -53 l5 -58 3 47 c2
36 8 51 23 59 30 16 47 -4 52 -59 3 -46 3 -46 5 9 2 44 -2 58 -14 63 -21 8
-26 7 -43 -3z"/>
<path d="M3193 706 c12 -9 17 -27 17 -60 0 -25 5 -46 10 -46 14 0 12 94 -2
108 -7 7 -19 12 -27 12 -14 -1 -13 -3 2 -14z"/>
<path d="M3340 700 c-41 -41 -15 -101 43 -99 31 2 31 2 4 6 -36 6 -62 44 -48
71 12 22 38 35 52 26 5 -3 9 0 9 5 0 18 -39 12 -60 -9z"/>
<path d="M3444 708 c-5 -8 -2 -9 11 -4 26 9 56 -3 54 -22 -4 -41 2 -82 11 -82
17 0 12 87 -6 104 -18 19 -60 21 -70 4z"/>
<path d="M3575 704 c-15 -15 -15 -18 1 -35 9 -10 25 -21 36 -25 28 -9 16 -28
-23 -36 -34 -6 -34 -6 6 -5 33 2 41 6 43 24 2 16 -5 26 -28 38 -34 18 -35 40
-1 39 11 0 21 3 21 8 0 14 -38 9 -55 -8z"/>
<path d="M1727 703 c-15 -14 -6 -33 23 -48 29 -15 41 -45 18 -45 -6 0 -8 -3
-5 -6 8 -8 37 14 37 28 0 5 -16 18 -36 30 -21 12 -33 26 -30 34 6 15 3 18 -7
7z"/>
<path d="M1842 698 c-25 -25 -9 -98 22 -98 5 0 2 8 -7 18 -20 22 -22 63 -5 80
7 7 10 12 7 12 -3 0 -10 -5 -17 -12z"/>
<path d="M2073 655 c0 -33 2 -45 4 -27 2 18 2 45 0 60 -2 15 -4 0 -4 -33z"/>
<path d="M3273 655 c0 -33 2 -45 4 -27 2 18 2 45 0 60 -2 15 -4 0 -4 -33z"/>
<path d="M2124 645 c-9 -22 3 -45 23 -45 15 0 15 1 -2 14 -16 12 -17 16 -6 30
9 11 10 16 2 16 -6 0 -14 -7 -17 -15z"/>
<path d="M2414 645 c-9 -23 3 -45 23 -44 17 1 17 2 1 6 -21 5 -23 24 -6 41 9
9 9 12 0 12 -7 0 -15 -7 -18 -15z"/>
<path d="M2660 645 c-16 -19 -6 -45 17 -45 15 0 15 1 -1 13 -17 13 -17 14 -1
30 9 9 12 17 7 17 -5 0 -15 -7 -22 -15z"/>
<path d="M3442 643 c-13 -25 -4 -43 21 -43 20 0 20 0 2 14 -16 12 -17 16 -6
30 8 10 9 16 3 16 -6 0 -15 -8 -20 -17z"/>
<path d="M1728 603 c7 -3 16 -2 19 1 4 3 -2 6 -13 5 -11 0 -14 -3 -6 -6z"/>
</g>
</svg>
